@startuml
'https://plantuml.com/class-diagram

abstract class AbstractFlyingObject
{
    # locationX:int
    # locationY:int
    # speedX:int
    # speedY:int
    # image:BufferedImage
    # width:int
    # height:int
    # isValid:boolean

    + AbstractFlyingObject(int locationX, int locationY, int speedX, int speedY)
    + forward():void
    + crash(AbstractFlyingObject flyingObject):boolean
    + setLocation(double locationX, double locationY):void
    + getLocationX():int
    + getLocationY():int
    + getSpeedY():int
    + getImage():BufferedImage
    + getWidth():int
    + getHeight():int
    + notValid():boolean
    + vanish():void
}
abstract class AbstractAircraft
{
	# axHp:int
    # hp:int
    + AbstractAircraft(int locationX, int locationY, int speedX, int speedY, int hp)
    + decreaseHp(int decrease):void
    + getHp():int
    + {abstract} shoot():List<BaseBullet>
    + {abstract} dropItem(AbstractItemFactory itemFactory):AbstractItem
 }

AbstractFlyingObject <|-- AbstractAircraft

abstract class AbstractEnemyFactory {
   + creatEnemy(int locationX, int locationY, int speedX, int speedY, int hp):AbstractAircraft
}

class EliteEnemyFactory {
   + creatEnemy(int locationX, int locationY, int speedX, int speedY, int hp):AbstractAircraft
}

class BossEnemyFactory {
   + creatEnemy(int locationX, int locationY, int speedX, int speedY, int hp):AbstractAircraft
}

class MobEnemyFactory {
   + creatEnemy(int locationX, int locationY, int speedX, int speedY, int hp):AbstractAircraft
}

AbstractEnemyFactory <|-- MobEnemyFactory
AbstractEnemyFactory <|-- EliteEnemyFactory
AbstractEnemyFactory <|-- BossEnemyFactory

class BossEnemy {
   + BossEnemy(int locationX, int locationY, int speedX, int speedY, int hp)
   + shoot():List<BaseBullet>
   + dropItem(AbstractItemFactory itemFactory):AbstractItem
}

class EliteEnemy {
   - int direction
   - int shootNum
   - int power
   + EliteEnemy(int locationX, int locationY, int speedX, int speedY, int hp)
   + forward():void
   + shoot():List<BaseBullet>
   + dropItem(AbstractItemFactory itemFactory):AbstractItem
}

class MobEnemy {
   + MobEnemy(int locationX, int locationY, int speedX, int speedY, int hp)
   + forward():void
   + shoot():List<BaseBullet>
   + dropItem(AbstractItemFactory itemFactory):AbstractItem
}

AbstractAircraft <|-- BossEnemy
AbstractAircraft <|-- EliteEnemy
AbstractAircraft <|-- MobEnemy

BossEnemyFactory .> BossEnemy
EliteEnemyFactory .> EliteEnemy
MobEnemyFactory .> MobEnemy


@enduml